<svg width="40" height="40" viewBox="0 0 40 40" fill="none" xmlns="http://www.w3.org/2000/svg">
<path fillRule="evenodd" clipRule="evenodd" d="M7.5 25C7.5 24.5398 7.8731 24.1667 8.33333 24.1667H31.6667C32.1269 24.1667 32.5 24.5398 32.5 25C32.5 25.4603 32.1269 25.8334 31.6667 25.8334H8.33333C7.8731 25.8334 7.5 25.4603 7.5 25Z" fill="white"/>
<path fillRule="evenodd" clipRule="evenodd" d="M12.5 6.66665C12.5 6.20641 12.8731 5.83331 13.3333 5.83331H26.6667C27.1269 5.83331 27.5 6.20641 27.5 6.66665C27.5 7.12688 27.1269 7.49998 26.6667 7.49998H13.3333C12.8731 7.49998 12.5 7.12688 12.5 6.66665Z" fill="white"/>
<path fillRule="evenodd" clipRule="evenodd" d="M15 6.66669C15.4602 6.66669 15.8333 7.03978 15.8333 7.50002V14.5885C15.8333 16.1963 14.9007 17.5694 13.6679 18.3984L13.6678 18.3984C10.1593 20.7573 7.49999 24.7032 7.49999 29.1027C7.49999 30.3783 7.67841 31.6092 8.01021 32.771C8.24519 33.5938 9.07648 34.1667 10.0849 34.1667H29.915C30.9235 34.1667 31.7547 33.5938 31.9899 32.771C32.3216 31.6092 32.5 30.3783 32.5 29.1027C32.5 24.7032 29.8407 20.7573 26.3322 18.3984L26.3322 18.3984C25.0992 17.5694 24.1667 16.1962 24.1667 14.5885V7.50002C24.1667 7.03978 24.5398 6.66669 25 6.66669C25.4602 6.66669 25.8333 7.03978 25.8333 7.50002V14.5885C25.8333 15.5247 26.3837 16.4247 27.2622 17.0153L26.7972 17.7069L27.2622 17.0153C31.1147 19.6055 34.1667 24.0212 34.1667 29.1027C34.1667 30.5344 33.9664 31.9192 33.5925 33.2287L33.5924 33.2288C33.1125 34.9086 31.5095 35.8334 29.915 35.8334H10.0849C8.49057 35.8334 6.8874 34.9086 6.40762 33.2287L6.40761 33.2287C6.03365 31.9192 5.83333 30.5344 5.83333 29.1027C5.83333 24.0212 8.88532 19.6055 12.7378 17.0153C13.6162 16.4247 14.1667 15.5247 14.1667 14.5885V7.50002C14.1667 7.03978 14.5398 6.66669 15 6.66669Z" fill="white"/>
<path fillRule="evenodd" clipRule="evenodd" d="M22.5196 10.7357C23.0327 11.1976 23.0743 11.9879 22.6124 12.5011L22.5957 12.5196C22.1339 13.0327 21.3435 13.0742 20.8304 12.6124C20.3173 12.1506 20.2757 11.3602 20.7376 10.8471L20.7543 10.8286C21.2161 10.3154 22.0065 10.2739 22.5196 10.7357Z" fill="white"/>
<path fillRule="evenodd" clipRule="evenodd" d="M19.1863 2.40243C19.6994 2.86428 19.7409 3.65465 19.2791 4.16776L19.2624 4.18627C18.8005 4.69938 18.0102 4.74093 17.4971 4.27907C16.984 3.81722 16.9424 3.02685 17.4043 2.51374L17.4209 2.49523C17.8828 1.98212 18.6732 1.94057 19.1863 2.40243Z" fill="white"/>
<path fillRule="evenodd" clipRule="evenodd" d="M34.7843 5.22705C35.0719 5.52978 35.0719 6.02061 34.7843 6.32334L4.5905 38.1063C4.3029 38.409 3.83662 38.409 3.54902 38.1063C3.26143 37.8036 3.26143 37.3127 3.54902 37.01L33.7428 5.22705C34.0304 4.92432 34.4967 4.92432 34.7843 5.22705Z" fill="white"/>
</svg>
