<svg width="140" height="34" viewBox="0 0 140 34" fill="none" xmlns="http://www.w3.org/2000/svg">
<g clip-path="url(#clip0_4_2)">
<path d="M36.785 11.97H50.958V14.567H45.386V29.169H42.32V14.567H36.772V11.969H36.784L36.785 11.97ZM50.353 16.715H52.973V19.119H53.022C53.109 18.779 53.269 18.451 53.504 18.135C54.0065 17.4577 54.6866 16.9327 55.469 16.618C55.8664 16.4605 56.2896 16.3781 56.717 16.375C57.037 16.375 57.273 16.387 57.397 16.4C57.52 16.412 57.643 16.436 57.779 16.448V19.094C57.5783 19.0589 57.3766 19.0305 57.174 19.009C56.9729 18.9852 56.7705 18.9732 56.568 18.973C56.098 18.973 55.654 19.07 55.234 19.253C54.814 19.434 54.455 19.713 54.147 20.066C53.8184 20.4607 53.5667 20.9135 53.405 21.401C53.22 21.935 53.133 22.541 53.133 23.234V29.157H50.341V16.715H50.353ZM70.618 29.17H67.875V27.434H67.825C67.479 28.066 66.973 28.564 66.293 28.94C65.613 29.316 64.921 29.51 64.217 29.51C62.549 29.51 61.337 29.11 60.597 28.296C59.855 27.483 59.484 26.257 59.484 24.618V16.716H62.277V24.351C62.277 25.444 62.487 26.221 62.92 26.67C63.34 27.119 63.945 27.35 64.711 27.35C65.304 27.35 65.786 27.265 66.181 27.082C66.577 26.9 66.898 26.67 67.133 26.366C67.38 26.075 67.553 25.711 67.665 25.298C67.775 24.885 67.825 24.436 67.825 23.951V16.728H70.618V29.17ZM75.375 25.177C75.462 25.977 75.77 26.537 76.302 26.864C76.845 27.18 77.488 27.35 78.242 27.35C78.502 27.35 78.798 27.325 79.132 27.289C79.465 27.252 79.786 27.167 80.071 27.059C80.367 26.949 80.601 26.779 80.799 26.561C80.985 26.341 81.071 26.063 81.059 25.711C81.0574 25.5476 81.0214 25.3864 80.9533 25.2379C80.8853 25.0894 80.7867 24.9569 80.664 24.849C80.416 24.619 80.108 24.449 79.724 24.303C79.2962 24.1548 78.8585 24.0372 78.414 23.951C77.92 23.854 77.426 23.744 76.92 23.635C76.4102 23.5247 75.9068 23.3868 75.412 23.222C74.9479 23.0733 74.5102 22.8522 74.115 22.567C73.7299 22.2983 73.4159 21.94 73.2 21.523C72.966 21.098 72.854 20.576 72.854 19.945C72.854 19.265 73.027 18.707 73.361 18.245C73.6979 17.7869 74.1328 17.4097 74.634 17.141C75.1726 16.8563 75.7517 16.6556 76.351 16.546C76.981 16.437 77.587 16.376 78.155 16.376C78.81 16.376 79.44 16.449 80.034 16.583C80.6091 16.7061 81.1572 16.9321 81.652 17.25C82.134 17.554 82.529 17.954 82.851 18.44C83.172 18.925 83.37 19.52 83.456 20.212H80.54C80.404 19.557 80.107 19.108 79.626 18.889C79.144 18.659 78.588 18.549 77.97 18.549C77.772 18.549 77.537 18.561 77.266 18.598C77.0049 18.6327 76.7479 18.6937 76.499 18.78C76.2715 18.8638 76.065 18.9962 75.894 19.168C75.811 19.2576 75.7464 19.3628 75.704 19.4774C75.6616 19.592 75.6423 19.7139 75.647 19.836C75.647 20.176 75.77 20.443 76.005 20.649C76.24 20.855 76.549 21.025 76.932 21.171C77.315 21.305 77.748 21.426 78.242 21.523C78.736 21.62 79.242 21.729 79.762 21.839C80.268 21.948 80.762 22.094 81.257 22.251C81.751 22.409 82.183 22.628 82.567 22.907C82.95 23.186 83.259 23.526 83.493 23.939C83.728 24.351 83.852 24.873 83.852 25.48C83.852 26.22 83.679 26.84 83.332 27.362C82.987 27.872 82.542 28.296 81.998 28.612C81.4285 28.94 80.8115 29.1775 80.169 29.316C79.5154 29.4598 78.8482 29.5329 78.179 29.534C77.4295 29.5424 76.6822 29.4527 75.956 29.267C75.276 29.085 74.683 28.818 74.189 28.467C73.7008 28.1122 73.2994 27.6513 73.015 27.119C72.731 26.585 72.582 25.941 72.558 25.201H75.375V25.177ZM84.593 16.717H86.706V12.977H89.499V16.717H92.019V18.767H89.5V25.42C89.5 25.71 89.512 25.954 89.537 26.172C89.561 26.379 89.623 26.561 89.71 26.706C89.8045 26.8583 89.948 26.974 90.117 27.034C90.303 27.107 90.537 27.144 90.859 27.144C91.056 27.144 91.254 27.144 91.452 27.131C91.65 27.119 91.847 27.095 92.045 27.046V29.17C91.736 29.207 91.427 29.231 91.143 29.267C90.8436 29.3018 90.5424 29.3182 90.241 29.316C89.5 29.316 88.907 29.243 88.461 29.11C88.017 28.976 87.658 28.77 87.411 28.503C87.151 28.236 86.991 27.908 86.892 27.507C86.7957 27.056 86.7422 26.597 86.732 26.136V18.79H84.619V16.714H84.594L84.593 16.717ZM93.996 16.717H96.641V18.403H96.691C97.085 17.675 97.629 17.165 98.333 16.85C99.0526 16.5301 99.8325 16.3684 100.62 16.376C101.62 16.376 102.485 16.546 103.227 16.898C103.968 17.238 104.586 17.712 105.08 18.318C105.574 18.925 105.933 19.629 106.18 20.431C106.432 21.2653 106.557 22.1326 106.551 23.004C106.551 23.841 106.44 24.654 106.217 25.432C106.012 26.1824 105.673 26.8895 105.216 27.519C104.767 28.1258 104.183 28.6204 103.511 28.964C102.819 29.328 102.016 29.51 101.077 29.51C100.667 29.5095 100.257 29.4727 99.853 29.4C99.4501 29.3274 99.0566 29.2096 98.68 29.049C98.3059 28.8929 97.956 28.6841 97.641 28.429C97.3301 28.181 97.0592 27.8865 96.838 27.556H96.788V33.771H93.996V16.715V16.717ZM103.758 22.955C103.759 22.4015 103.684 21.8504 103.536 21.317C103.399 20.8116 103.173 20.3347 102.868 19.909C102.579 19.5039 102.203 19.1679 101.769 18.925C101.302 18.6729 100.779 18.5435 100.249 18.549C99.075 18.549 98.185 18.949 97.592 19.751C96.999 20.552 96.702 21.621 96.702 22.955C96.702 23.586 96.777 24.169 96.937 24.703C97.097 25.237 97.32 25.699 97.641 26.087C97.951 26.476 98.321 26.779 98.754 26.997C99.186 27.228 99.693 27.337 100.261 27.337C100.904 27.337 101.435 27.204 101.88 26.949C102.311 26.7011 102.682 26.3614 102.967 25.954C103.251 25.541 103.462 25.079 103.585 24.558C103.699 24.0312 103.757 23.4939 103.758 22.955ZM108.688 11.97H111.481V14.568H108.688V11.97ZM108.688 16.716H111.481V29.17H108.688V16.716ZM113.977 11.97H116.77V29.17H113.977V11.97ZM125.333 29.51C124.319 29.51 123.417 29.34 122.627 29.013C121.87 28.7024 121.184 28.2395 120.613 27.653C120.058 27.0547 119.632 26.3478 119.364 25.577C119.07 24.7261 118.924 23.8312 118.932 22.931C118.932 21.984 119.08 21.111 119.364 20.309C119.633 19.5385 120.058 18.832 120.613 18.234C121.156 17.651 121.836 17.202 122.627 16.874C123.417 16.546 124.319 16.376 125.333 16.376C126.346 16.376 127.248 16.546 128.039 16.874C128.83 17.202 129.497 17.664 130.053 18.234C130.608 18.8318 131.033 19.5384 131.301 20.309C131.585 21.11 131.733 21.984 131.733 22.931C131.733 23.891 131.585 24.776 131.301 25.577C131.033 26.348 130.608 27.0549 130.053 27.653C129.509 28.236 128.83 28.685 128.039 29.013C127.248 29.34 126.346 29.51 125.333 29.51ZM125.333 27.337C125.951 27.337 126.494 27.204 126.951 26.949C127.396 26.701 127.781 26.3566 128.076 25.941C128.372 25.529 128.582 25.055 128.731 24.533C128.867 24.011 128.941 23.477 128.941 22.931C128.941 22.397 128.867 21.875 128.731 21.341C128.604 20.8345 128.381 20.3567 128.076 19.933C127.78 19.5213 127.396 19.1813 126.951 18.938C126.494 18.683 125.951 18.549 125.333 18.549C124.715 18.549 124.171 18.683 123.714 18.938C123.272 19.185 122.889 19.5244 122.59 19.933C122.289 20.3592 122.067 20.8362 121.935 21.341C121.798 21.86 121.727 22.3942 121.724 22.931C121.724 23.477 121.799 24.011 121.935 24.533C122.071 25.055 122.293 25.529 122.59 25.941C122.886 26.354 123.257 26.694 123.714 26.949C124.171 27.216 124.715 27.337 125.333 27.337ZM132.549 16.717H134.662V12.977H137.455V16.717H139.975V18.767H137.455V25.42C137.455 25.71 137.467 25.954 137.491 26.172C137.516 26.379 137.578 26.561 137.665 26.706C137.759 26.8585 137.903 26.9742 138.072 27.034C138.258 27.107 138.492 27.144 138.814 27.144C139.011 27.144 139.209 27.144 139.407 27.131C139.605 27.119 139.802 27.095 140 27.046V29.17C139.691 29.207 139.382 29.231 139.098 29.267C138.799 29.3018 138.497 29.3181 138.196 29.316C137.455 29.316 136.861 29.243 136.416 29.11C135.972 28.976 135.613 28.77 135.366 28.503C135.107 28.236 134.946 27.908 134.847 27.507C134.751 27.056 134.697 26.597 134.687 26.136V18.79H132.574V16.714H132.549V16.717Z" fill="white"/>
<path d="M33.523 11.969H20.722L16.768 0L12.8 11.97L0 11.957L10.367 19.361L6.401 31.317L16.768 23.925L27.123 31.317L23.169 19.361L33.523 11.969Z" fill="#04DA8D"/>
<path d="M24.058 22.069L23.168 19.362L16.768 23.926L24.058 22.069Z" fill="#126849"/>
</g>
<defs>
<clipPath id="clip0_4_2">
<rect width="140" height="34" fill="white"/>
</clipPath>
</defs>
</svg>
