<svg width="40" height="40" viewBox="0 0 40 40" fill="none" xmlns="http://www.w3.org/2000/svg">
<path d="M22.459 21.6469L27.2679 20.7923L28.1225 25.6012L23.3136 26.4558L22.459 21.6469Z" fill="white"/>
<path d="M6.51815 5L11.1604 6.51815L9.64226 11.1604L5 9.64226L6.51815 5Z" fill="white"/>
<path d="M12.5749 29.7963L15.4018 29.6692L15.529 32.4962L12.702 32.6233L12.5749 29.7963Z" fill="white"/>
<path d="M34.0653 13.685L34.2835 17.9092L30.5161 15.9861L34.0653 13.685Z" fill="white"/>
<path d="M30.1117 29.1715L28.2116 32.9506L25.8889 29.4155L30.1117 29.1715Z" fill="white"/>
<path d="M8.96552 14.4158L12.7301 16.3445L9.17755 18.6404L8.96552 14.4158Z" fill="white"/>
<path d="M26.8308 8.94571C27.0875 9.90406 26.5188 10.8891 25.5605 11.1459C24.6021 11.4027 23.6171 10.834 23.3603 9.87563C23.1035 8.91728 23.6722 7.93221 24.6306 7.67542C25.5889 7.41863 26.574 7.98736 26.8308 8.94571Z" fill="white"/>
<path d="M8.58113 24.7569C8.58113 25.6774 7.83494 26.4235 6.91447 26.4235C5.99399 26.4235 5.2478 25.6774 5.2478 24.7569C5.2478 23.8364 5.99399 23.0902 6.91447 23.0902C7.83494 23.0902 8.58113 23.8364 8.58113 24.7569Z" fill="white"/>
<path fillRule="evenodd" clipRule="evenodd" d="M36.451 3.56036C36.7386 3.86309 36.7386 4.35392 36.451 4.65665L6.25717 36.4396C5.96958 36.7423 5.50329 36.7423 5.2157 36.4396C4.9281 36.1369 4.9281 35.646 5.2157 35.3433L35.4095 3.56036C35.6971 3.25763 36.1634 3.25763 36.451 3.56036Z" fill="white"/>
</svg>
