<svg width="40" height="40" viewBox="0 0 40 40" fill="none" xmlns="http://www.w3.org/2000/svg">
<path d="M22.459 21.647L27.2678 20.7924L28.1224 25.6012L23.3136 26.4558L22.459 21.647Z" fill="white"/>
<path d="M6.51819 5L11.1605 6.51815L9.64231 11.1604L5.00004 9.64226L6.51819 5Z" fill="white"/>
<path d="M12.5748 29.7964L15.4018 29.6692L15.5289 32.4962L12.702 32.6234L12.5748 29.7964Z" fill="white"/>
<path d="M34.0652 13.6849L34.2834 17.9092L30.516 15.986L34.0652 13.6849Z" fill="white"/>
<path d="M30.1118 29.1715L28.2116 32.9505L25.889 29.4154L30.1118 29.1715Z" fill="white"/>
<path d="M8.96547 14.4159L12.73 16.3445L9.17751 18.6404L8.96547 14.4159Z" fill="white"/>
<path d="M26.8307 8.94571C27.0875 9.90406 26.5188 10.8891 25.5604 11.1459C24.6021 11.4027 23.617 10.834 23.3602 9.87563C23.1034 8.91728 23.6722 7.93221 24.6305 7.67542C25.5889 7.41863 26.5739 7.98736 26.8307 8.94571Z" fill="white"/>
<path d="M8.58114 24.7569C8.58114 25.6774 7.83494 26.4235 6.91447 26.4235C5.99399 26.4235 5.2478 25.6774 5.2478 24.7569C5.2478 23.8364 5.99399 23.0902 6.91447 23.0902C7.83494 23.0902 8.58114 23.8364 8.58114 24.7569Z" fill="white"/>
<path fillRule="evenodd" clipRule="evenodd" d="M36.451 3.56042C36.7386 3.86316 36.7386 4.35398 36.451 4.65671L6.25717 36.4397C5.96958 36.7424 5.50329 36.7424 5.2157 36.4397C4.9281 36.1369 4.9281 35.6461 5.2157 35.3434L35.4095 3.56042C35.6971 3.25769 36.1634 3.25769 36.451 3.56042Z" fill="white"/>
</svg>
