<svg width="41" height="41" viewBox="0 0 41 41" fill="none" xmlns="http://www.w3.org/2000/svg">
<g clipPath="url(#clip0_71_5856)">
<path fillRule="evenodd" clipRule="evenodd" d="M8.12496 1.33667L9.12077 1.80168C9.77282 2.10616 10.4571 2.41388 11.1643 2.73193C13.5395 3.80012 16.1738 4.98486 18.7184 6.55494C18.9569 6.70212 19.0527 6.91608 19.087 7.00526C19.1275 7.11065 19.1443 7.2079 19.1525 7.27056C19.1694 7.39865 19.1691 7.53239 19.1659 7.63916C19.1593 7.85385 19.1341 8.11626 19.1123 8.34291L19.1106 8.36014C19.1041 8.42831 19.0978 8.49351 19.0921 8.55543C19.2066 8.56161 19.3294 8.56755 19.4566 8.57371L19.4624 8.57399C19.7218 8.58654 20.0003 8.60006 20.2251 8.61834C20.3365 8.62739 20.4512 8.63886 20.5518 8.6547C20.6014 8.66252 20.6624 8.67366 20.7248 8.69028C20.7661 8.70128 20.896 8.73602 21.027 8.82393C23.816 10.6957 26.2179 12.7457 28.0937 15.7833C29.9653 18.8142 31.2746 22.7651 31.9932 28.3862C32.0516 28.8427 31.7288 29.2601 31.2723 29.3185C30.8157 29.3769 30.3984 29.0541 30.34 28.5976C29.6405 23.126 28.3836 19.425 26.6756 16.659C24.9984 13.9429 22.8489 12.0673 20.2233 10.2921C20.1879 10.2881 20.1437 10.2839 20.0901 10.2795C19.8981 10.2639 19.6495 10.2517 19.3818 10.2387L19.3587 10.2376C19.1065 10.2254 18.8382 10.2124 18.6209 10.1953C18.5099 10.1865 18.396 10.1755 18.2966 10.1604C18.2474 10.153 18.1875 10.1424 18.1263 10.1267C18.0861 10.1164 17.9589 10.0838 17.8297 10.0006C17.5984 9.85166 17.506 9.64102 17.4729 9.55312C17.4335 9.4489 17.4172 9.35274 17.4091 9.29016C17.3925 9.16246 17.3929 9.02904 17.3962 8.92197C17.4028 8.70736 17.4281 8.4454 17.4498 8.21902L17.4516 8.2006C17.4676 8.03383 17.4818 7.885 17.4908 7.75872C15.1609 6.35833 12.7893 5.29135 10.5436 4.28101C10.1633 4.10992 9.78664 3.94045 9.41439 3.77127C8.63042 8.65548 8.15988 12.9885 9.57847 18.8899L9.60155 18.9859V19.0847C9.60155 19.4061 9.74164 19.6487 10.0565 19.8904C10.4005 20.1547 10.8755 20.353 11.3995 20.5472C11.4564 20.5683 11.5153 20.5898 11.5749 20.6116C11.7668 20.6819 11.9667 20.755 12.137 20.8259C12.341 20.9107 12.6307 21.0413 12.8485 21.2446C12.9676 21.3559 13.1148 21.5339 13.1806 21.7884C13.2514 22.0623 13.2015 22.3213 13.098 22.5295C12.939 22.8492 12.641 23.0751 12.3823 23.2376C11.7798 23.7461 11.0663 23.8602 10.5194 23.8641C11.1158 25.9149 11.6845 27.4969 12.5147 28.7833C13.4218 30.1887 14.6696 31.2802 16.7303 32.1787C16.7306 32.1786 16.7309 32.1785 16.7312 32.1783C16.9196 32.0938 17.1671 31.976 17.4274 31.852L17.44 31.8459C17.6904 31.7266 17.9521 31.6019 18.1585 31.5092C18.2619 31.4628 18.3654 31.418 18.4528 31.3848C18.4942 31.3691 18.5513 31.3485 18.6121 31.3323C18.6412 31.3246 18.6925 31.312 18.7549 31.3047L18.7578 31.3044C18.7941 31.3 18.9673 31.2793 19.1645 31.3548C19.3885 31.4406 19.5097 31.595 19.5591 31.6676C19.6138 31.7479 19.6429 31.8206 19.6568 31.8591C19.6852 31.9372 19.697 32.0049 19.7017 32.0345C19.7127 32.1021 19.7168 32.1686 19.719 32.2138C19.7237 32.3124 19.724 32.4353 19.7226 32.5609C19.7199 32.8132 19.7095 33.1417 19.6994 33.4583L19.699 33.4716C19.6911 33.7199 19.6835 33.9605 19.6792 34.1643C20.692 34.5325 21.4477 34.8052 22.3075 34.9493C23.2836 35.1128 24.4255 35.1114 26.1992 34.7924C26.6521 34.711 27.0854 35.0122 27.1668 35.4651C27.2483 35.9181 26.9471 36.3513 26.4942 36.4328C24.5926 36.7748 23.2496 36.797 22.0321 36.593C20.9999 36.4201 20.0801 36.0848 19.0606 35.7131C18.9044 35.6562 18.7459 35.5984 18.5842 35.5402C18.3572 35.4585 18.2321 35.3052 18.18 35.2307C18.1231 35.1494 18.0928 35.0754 18.0782 35.0362C18.0487 34.9567 18.0365 34.8879 18.0315 34.858C18.0202 34.7896 18.0159 34.7225 18.0137 34.6772C18.0088 34.5783 18.0084 34.4552 18.0097 34.3295C18.0123 34.0741 18.0229 33.7406 18.0331 33.4202L18.0331 33.4186C18.0332 33.4156 18.0333 33.4125 18.0334 33.4094C17.814 33.5138 17.5927 33.6186 17.4131 33.6991C17.3098 33.7454 17.206 33.7902 17.1182 33.8233C17.0768 33.839 17.0189 33.8597 16.9572 33.8758C16.9276 33.8835 16.875 33.8962 16.8108 33.9031L16.8079 33.9034C16.7707 33.9076 16.5912 33.9275 16.3892 33.8442C13.8857 32.8127 12.2742 31.4841 11.1144 29.6871C9.98151 27.9318 9.31183 25.773 8.59425 23.1821C8.55842 23.0527 8.53558 22.848 8.62832 22.6254C8.722 22.4005 8.88643 22.2705 9.01051 22.2034C9.20574 22.0978 9.39464 22.0961 9.43705 22.0957L9.44068 22.0956C9.55525 22.0942 9.68024 22.1126 9.74437 22.122L9.75133 22.123C9.77917 22.1271 9.80709 22.1313 9.8352 22.1355C9.98374 22.1578 10.1376 22.1809 10.3141 22.1918C10.5445 22.2061 10.7505 22.1942 10.9274 22.1495C10.8928 22.1368 10.8572 22.1236 10.8204 22.11C10.304 21.9187 9.60806 21.6475 9.04138 21.2123C8.46724 20.7715 7.97235 20.1181 7.93691 19.1914C6.36 12.5637 7.06176 7.77806 7.94598 2.42103L8.12496 1.33667Z" fill="#D6AD61"/>
<path fillRule="evenodd" clipRule="evenodd" d="M15.8909 14.9613C16.3429 14.8749 16.7795 15.1713 16.8659 15.6233C17.0249 16.4551 17.6389 18.0223 18.7134 19.9966C19.7755 21.9482 21.253 24.2344 23.0844 26.4945C26.763 31.0341 31.7872 35.3677 37.6524 36.792C38.0996 36.9006 38.3742 37.3512 38.2656 37.7984C38.1569 38.2457 37.7063 38.5202 37.2591 38.4116C30.8828 36.8632 25.5707 32.2099 21.7895 27.5438C19.891 25.2009 18.3576 22.8295 17.2494 20.7933C16.1536 18.7797 15.4377 17.0286 15.2289 15.9363C15.1424 15.4843 15.4388 15.0478 15.8909 14.9613Z" fill="#D6AD61"/>
<path d="M14.2299 39.3324C10.4465 38.8027 3.09316 33.2818 2.26983 22.4476" stroke="white" strokeLinecap="round" strokeLinejoin="round"/>
<path d="M7.83325 12.5567C7.83325 5.22337 7.83325 2.55672 8.66659 3.39006L13.6666 15.89C15.6666 22.5567 23.3888 31.7234 26.1666 35.0568C23.4999 36.3901 20.0555 34.779 19.4999 34.2234L18.6666 31.7234L16.1666 32.5568C11.9999 30.8901 8.66659 23.3901 10.3333 23.3901C11.6666 23.3901 12.2777 22.5568 11.9999 21.7234C10.611 21.7234 7.83325 19.89 7.83325 12.5567Z" fill="#D6AD61" fillOpacity="0.5"/>
</g>
<defs>
<clipPath id="clip0_71_5856">
<rect width="40" height="40" fill="white" transform="translate(0.333252 0.890137)"/>
</clipPath>
</defs>
</svg>
