<svg width="40" height="40" viewBox="0 0 40 40" fill="none" xmlns="http://www.w3.org/2000/svg">
<path fillRule="evenodd" clipRule="evenodd" d="M4.28542 7.90461C4.52221 7.50996 5.03409 7.38199 5.42874 7.61878C6.7041 8.384 7.72972 10.0025 8.61812 11.8838C9.52681 13.8081 10.3735 16.1937 11.2072 18.6948C11.488 19.5373 11.7674 20.3922 12.0473 21.249C13.4491 25.5392 14.8662 29.8766 16.5618 32.9287C16.7306 33.2325 16.8749 33.463 16.9965 33.6334C17.0022 33.6164 17.008 33.5989 17.0139 33.5807C17.1985 33.0116 17.3671 32.1478 17.5716 31.0201C17.6005 30.8607 17.63 30.6968 17.6602 30.5289C17.8395 29.5333 18.0445 28.3945 18.3051 27.1928C19.5039 21.6639 21.9894 14.2237 29.4147 12.3149C29.8605 12.2003 30.3147 12.4688 30.4293 12.9146C30.5439 13.3603 30.2754 13.8145 29.8297 13.9291C23.4662 15.5649 21.1407 21.9803 19.9339 27.546C19.6801 28.7164 19.4807 29.8235 19.3013 30.8198C19.2709 30.989 19.241 31.155 19.2115 31.3176C19.0126 32.4142 18.8254 33.3978 18.5993 34.095C18.4885 34.4364 18.3434 34.7922 18.1302 35.0674C17.9005 35.3637 17.4911 35.6774 16.9245 35.5864C16.4655 35.5127 16.1244 35.1949 15.892 34.9252C15.6364 34.6286 15.3766 34.2272 15.1049 33.7381C13.3234 30.5314 11.8438 25.9988 10.4451 21.7137C10.1695 20.8695 9.89709 20.0349 9.6261 19.2219C8.79314 16.723 7.97318 14.4212 7.11104 12.5954C6.2286 10.7268 5.37922 9.53272 4.57125 9.04794C4.1766 8.81115 4.04863 8.29926 4.28542 7.90461Z" fill="white"/>
<path fillRule="evenodd" clipRule="evenodd" d="M24.8002 7.08206C26.7758 5.60429 29.5984 5.01383 33.3994 5.54674L36.6729 6.00568C37.1286 6.06958 37.4463 6.49087 37.3824 6.94665L37.1209 8.81228C37.1189 8.82607 37.1166 8.83981 37.114 8.85349C36.3224 12.9826 34.898 15.852 32.8923 17.5875C30.8597 19.3463 28.3508 19.838 25.64 19.458L23.1821 19.1134C22.944 19.08 22.7319 18.9454 22.6003 18.7442C21.0596 16.388 21.3575 14.2631 21.4949 13.2834L21.4954 13.2796L21.4957 13.2776C21.8476 10.8117 22.8245 8.55995 24.8002 7.08206ZM23.1458 13.5121C23.0285 14.3487 22.8248 15.8204 23.8018 17.5173L25.8714 17.8075C28.2314 18.1383 30.2188 17.6968 31.8017 16.3272C33.4087 14.9366 34.7172 12.4886 35.4733 8.56005L35.6162 7.5405L33.168 7.19726C29.6296 6.70116 27.3032 7.29114 25.7985 8.41667C24.2942 9.54191 23.4593 11.316 23.1458 13.5121Z" fill="white"/>
</svg>
