<svg width="40" height="40" viewBox="0 0 40 40" fill="none" xmlns="http://www.w3.org/2000/svg">
<path fillRule="evenodd" clipRule="evenodd" d="M20.2528 13.5425C20.145 13.9611 19.7182 14.2131 19.2996 14.1052C17.5152 13.6456 15.9697 13.7 14.5934 14.1417C13.211 14.5853 11.9494 15.4359 10.7648 16.6436C10.462 16.9522 9.96644 16.9569 9.65784 16.6542C9.34923 16.3515 9.34447 15.8559 9.6472 15.5473C10.9624 14.2065 12.4337 13.1906 14.115 12.651C15.8024 12.1095 17.6513 12.064 19.6901 12.5892C20.1087 12.697 20.3607 13.1238 20.2528 13.5425Z" fill="white"/>
<path fillRule="evenodd" clipRule="evenodd" d="M9.04532 25.6223C9.43683 25.4389 9.90283 25.6077 10.0862 25.9992C10.8675 27.6679 11.8934 28.8253 13.1101 29.6055C14.3322 30.3892 15.7913 30.8207 17.4768 30.9656C17.9075 31.0026 18.2267 31.3817 18.1896 31.8125C18.1526 32.2432 17.7734 32.5623 17.3427 32.5253C15.4715 32.3645 13.7514 31.8765 12.265 30.9233C10.7732 29.9667 9.56119 28.5698 8.66838 26.6631C8.48505 26.2716 8.65382 25.8056 9.04532 25.6223Z" fill="white"/>
<path fillRule="evenodd" clipRule="evenodd" d="M26.5258 26.3267C26.4947 25.8955 26.8191 25.5208 27.2503 25.4897C29.0881 25.3574 30.5359 24.8137 31.7 23.9568C32.8691 23.0962 33.7943 21.8882 34.5328 20.3662C34.7215 19.9773 35.1898 19.815 35.5788 20.0037C35.9677 20.1924 36.13 20.6607 35.9413 21.0496C35.1213 22.7394 34.0501 24.1708 32.628 25.2176C31.2009 26.2682 29.4626 26.8999 27.3627 27.0512C26.9315 27.0822 26.5568 26.7579 26.5258 26.3267Z" fill="white"/>
<path fillRule="evenodd" clipRule="evenodd" d="M18.4091 6.16919C20.7102 5.89493 23.2836 6.74024 26.1253 8.95892L28.5726 10.8696C28.9134 11.1357 28.9739 11.6276 28.7079 11.9683L27.6189 13.3631C27.6108 13.3734 27.6025 13.3835 27.594 13.3934C25.0108 16.3805 22.5044 18.0457 20.0578 18.5155C17.5784 18.9915 15.3065 18.2133 13.2798 16.6309L11.4422 15.1963C11.2642 15.0573 11.1549 14.8482 11.1424 14.6227C10.9957 11.9824 12.236 10.3938 12.8078 9.66143L12.81 9.65858L12.8112 9.65707C14.2556 7.81636 16.1078 6.44347 18.4091 6.16919ZM14.0434 10.6228C13.5551 11.2482 12.6982 12.3498 12.696 14.189L14.2432 15.397C16.0076 16.7745 17.8317 17.3488 19.7626 16.978C21.7229 16.6016 23.937 15.2247 26.3971 12.3841L26.9922 11.6219L25.1619 10.1929C22.5165 8.12746 20.347 7.51481 18.5944 7.7237C16.8422 7.93254 15.3298 8.98361 14.0434 10.6228Z" fill="white"/>
<path fillRule="evenodd" clipRule="evenodd" d="M4.53267 31.7381C2.85632 30.1381 1.87011 27.6154 1.77222 24.0114L1.68792 20.9077C1.67618 20.4756 2.01699 20.1157 2.44914 20.104L4.21803 20.056C4.23111 20.0556 4.24419 20.0556 4.25727 20.0559C8.20534 20.1466 11.085 21.0195 13.0048 22.6074C14.9503 24.2165 15.7963 26.464 15.8661 29.0343L15.9294 31.3647C15.9356 31.5905 15.8439 31.8079 15.678 31.9611C13.7351 33.755 11.7204 33.8097 10.7916 33.8349L10.788 33.835L10.7861 33.835C8.44701 33.8928 6.20916 33.3384 4.53267 31.7381ZM10.7464 32.27C11.5397 32.2485 12.9347 32.2081 14.3545 31.0391L14.3012 29.0768C14.2404 26.8392 13.5221 25.0668 12.007 23.8137C10.4689 22.5415 7.99757 21.7104 4.24079 21.6214L3.27411 21.6477L3.33716 23.9689C3.42828 27.3239 4.33682 29.387 5.6136 30.6057C6.89005 31.8241 8.66338 32.3213 10.7464 32.27Z" fill="white"/>
<path fillRule="evenodd" clipRule="evenodd" d="M30.6211 32.7291C28.527 33.7217 25.8185 33.7397 22.4182 32.5412L19.49 31.5091C19.0823 31.3654 18.8683 30.9184 19.012 30.5106L19.6002 28.8417C19.6046 28.8294 19.6092 28.8172 19.6142 28.8051C21.112 25.151 22.9577 22.7745 25.1275 21.5502C27.3263 20.3095 29.7278 20.324 32.1527 21.1787L34.3515 21.9537C34.5645 22.0288 34.7347 22.1922 34.8183 22.4019C35.798 24.8581 35.128 26.759 34.8191 27.6353L34.8179 27.6387L34.8173 27.6405C34.0341 29.8453 32.7154 31.7364 30.6211 32.7291ZM33.3418 27.1173C33.6055 26.369 34.0671 25.0519 33.4837 23.3077L31.6323 22.6552C29.5212 21.9111 27.6092 21.9474 25.8968 22.9136C24.1583 23.8946 22.4978 25.9047 21.0701 29.3808L20.7487 30.2928L22.9387 31.0647C26.104 32.1804 28.3556 32.0705 29.9506 31.3145C31.5451 30.5587 32.6441 29.0808 33.3418 27.1173Z" fill="white"/>
</svg>
