<svg width="72" height="72" viewBox="0 0 72 72" fill="none" xmlns="http://www.w3.org/2000/svg">
<g clipPath="url(#clip0_71_4946)">
<path fillRule="evenodd" clipRule="evenodd" d="M14.0252 0.803833L15.8176 1.64084C16.9913 2.18891 18.223 2.74281 19.4959 3.3153C23.7713 5.23805 28.5132 7.37058 33.0933 10.1967C33.5226 10.4616 33.6951 10.8468 33.7568 11.0073C33.8298 11.197 33.8599 11.372 33.8748 11.4848C33.9052 11.7154 33.9047 11.9561 33.8988 12.1483C33.887 12.5348 33.8416 13.0071 33.8023 13.4151L33.7994 13.4461C33.7876 13.5688 33.7763 13.6861 33.766 13.7976C33.9722 13.8087 34.1932 13.8194 34.4221 13.8305L34.4325 13.831C34.8995 13.8536 35.4007 13.8779 35.8055 13.9108C36.006 13.9271 36.2124 13.9478 36.3934 13.9763C36.4828 13.9904 36.5925 14.0104 36.7049 14.0403C36.7793 14.0601 37.0131 14.1227 37.2489 14.2809C42.269 17.6501 46.5925 21.34 49.9689 26.8078C53.3378 32.2634 55.6946 39.3751 56.988 49.493C57.0931 50.3148 56.5121 51.0661 55.6903 51.1711C54.8686 51.2762 54.1173 50.6952 54.0122 49.8734C52.7532 40.0247 50.4908 33.3628 47.4164 28.384C44.3973 23.495 40.5283 20.119 35.8022 16.9236C35.7385 16.9165 35.659 16.9088 35.5624 16.901C35.2168 16.8729 34.7693 16.8508 34.2875 16.8275L34.2459 16.8255C33.7919 16.8035 33.3091 16.7802 32.9178 16.7493C32.718 16.7336 32.5131 16.7138 32.334 16.6866C32.2456 16.6732 32.1378 16.6542 32.0277 16.626C31.9552 16.6074 31.7263 16.5486 31.4937 16.3989C31.0773 16.1308 30.9111 15.7517 30.8514 15.5934C30.7805 15.4059 30.7512 15.2328 30.7366 15.1201C30.7068 14.8903 30.7074 14.6501 30.7134 14.4574C30.7254 14.0711 30.7707 13.5995 30.8099 13.1921L30.8131 13.1589C30.842 12.8587 30.8674 12.5908 30.8836 12.3635C26.6899 9.84283 22.421 7.92226 18.3787 6.10364C17.6942 5.79568 17.0162 5.49064 16.3461 5.18611C14.935 13.9777 14.088 21.7771 16.6415 32.3997L16.683 32.5725V32.7503C16.683 33.3288 16.9352 33.7655 17.5019 34.2006C18.1212 34.6762 18.9761 35.0332 19.9193 35.3827C20.0218 35.4207 20.1277 35.4595 20.235 35.4988C20.5804 35.6252 20.9403 35.7569 21.2469 35.8845C21.614 36.0372 22.1355 36.2722 22.5275 36.6382C22.7419 36.8384 23.0069 37.1588 23.1253 37.617C23.2527 38.1099 23.163 38.5761 22.9766 38.951C22.6904 39.5265 22.1541 39.9331 21.6884 40.2256C20.604 41.1408 19.3195 41.3461 18.3351 41.3532C19.4087 45.0447 20.4323 47.8923 21.9268 50.2078C23.5595 52.7374 25.8056 54.7021 29.5148 56.3196C29.5154 56.3193 29.5159 56.3191 29.5165 56.3188C29.8556 56.1668 30.301 55.9547 30.7696 55.7314L30.7923 55.7205C31.2429 55.5058 31.714 55.2813 32.0856 55.1144C32.2716 55.0308 32.4579 54.9502 32.6152 54.8905C32.6898 54.8622 32.7926 54.8252 32.902 54.7961C32.9543 54.7821 33.0467 54.7595 33.1591 54.7463L33.1642 54.7457C33.2296 54.7379 33.5413 54.7006 33.8963 54.8365C34.2995 54.9909 34.5177 55.2688 34.6067 55.3995C34.705 55.544 34.7574 55.6749 34.7826 55.7442C34.8336 55.8849 34.8548 56.0066 34.8634 56.0599C34.883 56.1815 34.8905 56.3012 34.8944 56.3827C34.9029 56.5602 34.9034 56.7813 34.901 57.0075C34.8961 57.4616 34.8773 58.0528 34.8591 58.6228L34.8584 58.6468C34.8442 59.0937 34.8305 59.5268 34.8228 59.8936C36.6458 60.5563 38.0061 61.0472 39.5537 61.3065C41.3108 61.6009 43.3662 61.5984 46.5588 61.0242C47.3741 60.8776 48.1539 61.4197 48.3006 62.2351C48.4472 63.0504 47.9051 63.8303 47.0897 63.9769C43.667 64.5924 41.2496 64.6324 39.058 64.2653C37.2 63.954 35.5444 63.3504 33.7094 62.6815C33.4282 62.579 33.1428 62.4749 32.8518 62.3702C32.4432 62.2231 32.2181 61.9472 32.1243 61.813C32.0219 61.6668 31.9673 61.5336 31.941 61.463C31.8879 61.3199 31.8659 61.196 31.857 61.1422C31.8366 61.0191 31.8289 60.8983 31.8249 60.8167C31.8161 60.6387 31.8153 60.4172 31.8177 60.191C31.8224 59.7312 31.8415 59.1309 31.8598 58.5542L31.8599 58.5514C31.8601 58.5458 31.8602 58.5403 31.8604 58.5347C31.4655 58.7228 31.067 58.9113 30.7438 59.0563C30.5578 59.1396 30.371 59.2202 30.2131 59.2798C30.1384 59.308 30.0342 59.3453 29.9231 59.3743C29.87 59.3882 29.7752 59.411 29.6596 59.4235L29.6545 59.424C29.5876 59.4314 29.2644 59.4673 28.9008 59.3175C24.3945 57.4606 21.4939 55.0693 19.4062 51.8346C17.367 48.6751 16.1615 44.7892 14.8699 40.1257C14.8054 39.8928 14.7643 39.5242 14.9312 39.1235C15.0998 38.7188 15.3958 38.4847 15.6192 38.3639C15.9706 38.1739 16.3106 38.1708 16.3869 38.1701L16.3935 38.17C16.5997 38.1674 16.8247 38.2005 16.9401 38.2174L16.9526 38.2192C17.0028 38.2266 17.053 38.2341 17.1036 38.2417C17.371 38.2819 17.648 38.3235 17.9656 38.3431C18.3804 38.3688 18.7512 38.3475 19.0696 38.2669C19.0074 38.244 18.9432 38.2204 18.877 38.1959C17.9475 37.8514 16.6947 37.3633 15.6747 36.58C14.6413 35.7864 13.7505 34.6103 13.6867 32.9424C10.8482 21.0125 12.1114 12.3983 13.703 2.75569L14.0252 0.803833Z" fill="#D6AD61"/>
<path fillRule="evenodd" clipRule="evenodd" d="M28.0038 25.3282C28.8175 25.1727 29.6032 25.7062 29.7588 26.5199C30.0451 28.0171 31.1501 30.8379 33.0842 34.3917C34.996 37.9047 37.6555 42.0199 40.952 46.0879C47.5736 54.2592 56.6171 62.0597 67.1745 64.6234C67.9795 64.8189 68.4737 65.63 68.2782 66.4351C68.0827 67.2401 67.2716 67.7342 66.4666 67.5387C54.9893 64.7516 45.4274 56.3757 38.6213 47.9767C35.2039 43.7595 32.4439 39.491 30.4492 35.8258C28.4766 32.2014 27.1881 29.0494 26.8122 27.0832C26.6566 26.2696 27.1901 25.4838 28.0038 25.3282Z" fill="#D6AD61"/>
<path d="M25.0139 69.1963C18.2039 68.2427 4.96782 58.3052 3.48582 38.8037" stroke="white" strokeLinecap="round" strokeLinejoin="round"/>
<path d="M13.5 21C13.5 7.80003 13.5 3.00006 15 4.50006L24 27C27.6 39 41.5 55.5001 46.5 61.5001C41.7 63.9001 35.5 61.0001 34.5 60.0001L33 55.5001L28.5 57.0001C21 54.0001 15 40.5001 18 40.5001C20.4 40.5001 21.5 39.0001 21 37.5001C18.5 37.5001 13.5 34.2 13.5 21Z" fill="#D6AD61" fillOpacity="0.5"/>
</g>
<defs>
<clipPath id="clip0_71_4946">
<rect width="72" height="72" fill="white"/>
</clipPath>
</defs>
</svg>
