<svg width="72" height="72" viewBox="0 0 72 72" fill="none" xmlns="http://www.w3.org/2000/svg">
<path fillRule="evenodd" clipRule="evenodd" d="M21.6 3C19.6118 3 18 4.61178 18 6.6V35.4C18 37.3882 19.6118 39 21.6 39H50.4C52.3882 39 54 37.3882 54 35.4V6.6C54 4.61178 52.3882 3 50.4 3H21.6Z" fill="#D6AD61" fillOpacity="0.5"/>
<path fillRule="evenodd" clipRule="evenodd" d="M27.5147 12.5147C29.7652 10.2643 32.8174 9 36 9C39.1826 9 42.2348 10.2643 44.4853 12.5147C46.7357 14.7652 48 17.8174 48 21C48 24.1826 46.7357 27.2348 44.4853 29.4853C42.2348 31.7357 39.1826 33 36 33C32.8174 33 29.7652 31.7357 27.5147 29.4853C25.2643 27.2348 24 24.1826 24 21C24 17.8174 25.2643 14.7652 27.5147 12.5147ZM36 11.6667C33.5246 11.6667 31.1507 12.65 29.4003 14.4003C27.65 16.1507 26.6667 18.5246 26.6667 21C26.6667 23.4754 27.65 25.8493 29.4003 27.5997C31.1507 29.35 33.5246 30.3333 36 30.3333C38.4754 30.3333 40.8493 29.35 42.5997 27.5997C44.35 25.8493 45.3333 23.4754 45.3333 21C45.3333 18.5246 44.35 16.1507 42.5997 14.4003C40.8493 12.65 38.4754 11.6667 36 11.6667Z" fill="white"/>
<path fillRule="evenodd" clipRule="evenodd" d="M35.4034 22.3411C32.2243 20.552 29.1092 20.552 25.9302 22.3411C25.2717 22.7117 24.4707 22.4117 24.1412 21.6711C23.8117 20.9304 24.0784 20.0295 24.737 19.6589C28.6671 17.447 32.6665 17.447 36.5966 19.6589C39.7757 21.448 42.8908 21.448 46.0698 19.6589C46.7283 19.2883 47.5293 19.5883 47.8588 20.3289C48.1883 21.0696 47.9216 21.9705 47.263 22.3411C43.3329 24.553 39.3335 24.553 35.4034 22.3411Z" fill="white"/>
<path d="M69 46.5C69 53.9558 62.9558 60 55.5 60C48.0442 60 42 53.9558 42 46.5C42 39.0442 48.0442 33 55.5 33C62.9558 33 69 39.0442 69 46.5Z" fill="white"/>
<path fillRule="evenodd" clipRule="evenodd" d="M63.9603 40.8476C64.5967 41.378 64.6827 42.3238 64.1524 42.9603L54.1524 54.9603C53.8674 55.3022 53.4452 55.5 53 55.5C52.5549 55.5 52.1327 55.3022 51.8477 54.9603L46.8477 48.9603C46.3174 48.3238 46.4033 47.378 47.0398 46.8476C47.6762 46.3173 48.622 46.4033 49.1524 47.0397L53 51.6569L61.8477 41.0397C62.3781 40.4033 63.3239 40.3173 63.9603 40.8476Z" fill="#D6AD61"/>
<path fillRule="evenodd" clipRule="evenodd" d="M9.50891 34.5C10.3373 34.5 11.0089 35.1716 11.0089 36L11.0089 63C11.0089 63.8284 10.3373 64.5 9.50891 64.5C8.68048 64.5 8.00891 63.8284 8.00891 63L8.00891 36C8.00891 35.1716 8.68048 34.5 9.50891 34.5Z" fill="#D6AD61"/>
<path fillRule="evenodd" clipRule="evenodd" d="M4.63416 59.6251C4.63416 58.7967 5.30573 58.1251 6.13416 58.1251H33.1342C33.9626 58.1251 34.6342 58.7967 34.6342 59.6251C34.6342 60.4535 33.9626 61.1251 33.1342 61.1251H6.13416C5.30573 61.1251 4.63416 60.4535 4.63416 59.6251Z" fill="#D6AD61"/>
<path fillRule="evenodd" clipRule="evenodd" d="M29.7589 34.5C30.5873 34.5 31.2589 35.1716 31.2589 36L31.2589 63C31.2589 63.8284 30.5873 64.5 29.7589 64.5C28.9305 64.5 28.2589 63.8284 28.2589 63L28.2589 36C28.2589 35.1716 28.9305 34.5 29.7589 34.5Z" fill="#D6AD61"/>
<path fillRule="evenodd" clipRule="evenodd" d="M4.63379 39.3751C4.63379 38.5467 5.30536 37.8751 6.13379 37.8751H33.1338C33.9622 37.8751 34.6338 38.5467 34.6338 39.3751C34.6338 40.2035 33.9622 40.8751 33.1338 40.8751H6.13379C5.30536 40.8751 4.63379 40.2035 4.63379 39.3751Z" fill="#D6AD61"/>
<path fillRule="evenodd" clipRule="evenodd" d="M19.634 34.5C20.4625 34.5 21.134 35.1716 21.134 36L21.134 63C21.134 63.8284 20.4625 64.5 19.634 64.5C18.8056 64.5 18.134 63.8284 18.134 63L18.134 36C18.134 35.1716 18.8056 34.5 19.634 34.5Z" fill="#D6AD61"/>
<path fillRule="evenodd" clipRule="evenodd" d="M4.63416 49.5004C4.63416 48.672 5.30573 48.0004 6.13416 48.0004H33.1342C33.9626 48.0004 34.6342 48.672 34.6342 49.5004C34.6342 50.3289 33.9626 51.0004 33.1342 51.0004H6.13416C5.30573 51.0004 4.63416 50.3289 4.63416 49.5004Z" fill="#D6AD61"/>
</svg>
