<svg width="72" height="72" viewBox="0 0 72 72" fill="none" xmlns="http://www.w3.org/2000/svg">
  <circle cx="36" cy="36" r="36" fill="white"/>
  <g transform="translate(13.5, 13.5)">
    <path fillRule="evenodd" clipRule="evenodd" d="M22.6262 15.7372C22.5068 16.2009 22.034 16.48 21.5703 16.3605C19.5938 15.8514 17.8818 15.9116 16.3573 16.4009C14.8261 16.8923 13.4286 17.8345 12.1164 19.1722C11.781 19.5141 11.2321 19.5193 10.8902 19.184C10.5484 18.8487 10.5431 18.2997 10.8784 17.9579C12.3353 16.4727 13.965 15.3474 15.8274 14.7497C17.6965 14.1499 19.7445 14.0995 22.0029 14.6812C22.4666 14.8007 22.7457 15.2734 22.6262 15.7372Z" fill="#D6AD61"/>
    <path fillRule="evenodd" clipRule="evenodd" d="M10.2118 29.1178C10.6455 28.9148 11.1616 29.1017 11.3647 29.5354C12.2302 31.3838 13.3665 32.6658 14.7143 33.53C16.068 34.3981 17.6842 34.8761 19.5512 35.0365C20.0284 35.0775 20.3819 35.4976 20.3409 35.9747C20.2999 36.4518 19.8798 36.8053 19.4027 36.7643C17.33 36.5861 15.4247 36.0456 13.7782 34.9898C12.1258 33.9301 10.7832 32.3828 9.79424 30.2707C9.59117 29.8371 9.77811 29.3209 10.2118 29.1178Z" fill="#D6AD61"/>
    <path fillRule="evenodd" clipRule="evenodd" d="M29.5747 29.8982C29.5403 29.4206 29.8996 29.0055 30.3772 28.9711C32.413 28.8245 34.0167 28.2223 35.3061 27.2731C36.6012 26.3198 37.626 24.9817 38.4441 23.2958C38.6531 22.865 39.1718 22.6852 39.6026 22.8943C40.0335 23.1033 40.2132 23.622 40.0042 24.0529C39.096 25.9245 37.9093 27.5101 36.3342 28.6697C34.7533 29.8334 32.8279 30.5332 30.5018 30.7007C30.0242 30.7351 29.6091 30.3758 29.5747 29.8982Z" fill="#D6AD61"/>
    <path fillRule="evenodd" clipRule="evenodd" d="M20.584 7.57003C23.1329 7.26623 25.9834 8.20257 29.1312 10.6602L31.842 12.7767C32.2194 13.0714 32.2865 13.6162 31.9918 13.9937L30.7856 15.5387C30.7767 15.5501 30.7675 15.5613 30.758 15.5722C27.8966 18.881 25.1203 20.7255 22.4102 21.2459C19.6638 21.7732 17.1472 20.9112 14.9023 19.1584L12.8668 17.5692C12.6696 17.4153 12.5486 17.1837 12.5347 16.9339C12.3722 14.0093 13.7461 12.2496 14.3795 11.4383L14.3819 11.4352L14.3832 11.4335C15.9832 9.39459 18.0348 7.87385 20.584 7.57003ZM15.7481 12.5032C15.2072 13.196 14.258 14.4162 14.2556 16.4535L15.9695 17.7916C17.9238 19.3175 19.9444 19.9536 22.0832 19.5429C24.2546 19.126 26.7072 17.6008 29.4322 14.4542L30.0914 13.6099L28.064 12.027C25.1337 9.73919 22.7306 9.06056 20.7892 9.29195C18.8483 9.52327 17.1731 10.6875 15.7481 12.5032Z" fill="#D6AD61"/>
    <path fillRule="evenodd" clipRule="evenodd" d="M5.21317 35.8923C3.35628 34.1199 2.26386 31.3255 2.15543 27.3335L2.06206 23.8956C2.04906 23.4169 2.42657 23.0183 2.90525 23.0053L4.86464 22.9521C4.87912 22.9517 4.89362 22.9516 4.9081 22.952C9.28136 23.0525 12.4712 24.0194 14.5977 25.7782C16.7527 27.5606 17.6898 30.0502 17.7671 32.8973L17.8373 35.4787C17.844 35.7288 17.7425 35.9696 17.5587 36.1393C15.4066 38.1263 13.175 38.187 12.1461 38.2149L12.1421 38.215L12.14 38.2151C9.54904 38.2791 7.0702 37.6649 5.21317 35.8923ZM12.0961 36.4815C12.9748 36.4576 14.52 36.4129 16.0927 35.118L16.0337 32.9444C15.9664 30.4658 15.1707 28.5026 13.4925 27.1145C11.7886 25.7053 9.05121 24.7847 4.88985 24.6861L3.81907 24.7152L3.8889 27.2864C3.98984 31.0027 4.99622 33.288 6.4105 34.6379C7.82442 35.9875 9.78872 36.5383 12.0961 36.4815Z" fill="#D6AD61"/>
    <path fillRule="evenodd" clipRule="evenodd" d="M34.1112 36.9901C31.7916 38.0896 28.7914 38.1095 25.0249 36.7819L21.7813 35.6386C21.3297 35.4794 21.0926 34.9843 21.2518 34.5327L21.9034 32.684C21.9082 32.6704 21.9134 32.6568 21.9189 32.6434C23.578 28.5958 25.6225 25.9634 28.0259 24.6072C30.4616 23.2329 33.1217 23.249 35.8078 24.1957L38.2433 25.0542C38.4792 25.1374 38.6677 25.3184 38.7604 25.5507C39.8456 28.2714 39.1034 30.377 38.7613 31.3477L38.76 31.3514L38.7593 31.3534C37.8917 33.7957 36.431 35.8905 34.1112 36.9901ZM37.1248 30.7739C37.417 29.945 37.9283 28.4861 37.282 26.5541L35.2313 25.8312C32.8928 25.007 30.7749 25.0473 28.8781 26.1175C26.9524 27.2041 25.1131 29.4307 23.5316 33.2811L23.1755 34.2914L25.6014 35.1464C29.1076 36.3823 31.6018 36.2605 33.3684 35.4231C35.1347 34.5859 36.3521 32.9488 37.1248 30.7739Z" fill="#D6AD61"/>
  </g>
</svg>