<svg width="40" height="40" viewBox="0 0 40 40" fill="none" xmlns="http://www.w3.org/2000/svg">
<path fillRule="evenodd" clipRule="evenodd" d="M7.5 25C7.5 24.5397 7.8731 24.1666 8.33333 24.1666H31.6667C32.1269 24.1666 32.5 24.5397 32.5 25C32.5 25.4602 32.1269 25.8333 31.6667 25.8333H8.33333C7.8731 25.8333 7.5 25.4602 7.5 25Z" fill="white"/>
<path fillRule="evenodd" clipRule="evenodd" d="M12.5 6.66671C12.5 6.20647 12.8731 5.83337 13.3333 5.83337H26.6667C27.1269 5.83337 27.5 6.20647 27.5 6.66671C27.5 7.12694 27.1269 7.50004 26.6667 7.50004H13.3333C12.8731 7.50004 12.5 7.12694 12.5 6.66671Z" fill="white"/>
<path fillRule="evenodd" clipRule="evenodd" d="M15 6.66663C15.4603 6.66663 15.8334 7.03972 15.8334 7.49996V14.5884C15.8334 16.1962 14.9007 17.5693 13.6679 18.3983L13.6679 18.3984C10.1593 20.7572 7.50004 24.7031 7.50004 29.1026C7.50004 30.3783 7.67845 31.6091 8.01026 32.771C8.24524 33.5937 9.07653 34.1666 10.085 34.1666H29.915C30.9235 34.1666 31.7548 33.5938 31.9899 32.771C32.3217 31.6091 32.5 30.3783 32.5 29.1026C32.5 24.7031 29.8407 20.7572 26.3323 18.3984L26.3322 18.3983C25.0993 17.5693 24.1667 16.1962 24.1667 14.5884V7.49996C24.1667 7.03972 24.5398 6.66663 25 6.66663C25.4603 6.66663 25.8334 7.03972 25.8334 7.49996V14.5884C25.8334 15.5247 26.3838 16.4246 27.2622 17.0153L26.7972 17.7068L27.2622 17.0153C31.1147 19.6054 34.1667 24.0211 34.1667 29.1026C34.1667 30.5343 33.9664 31.9191 33.5925 33.2286L33.5925 33.2287C33.1126 34.9085 31.5095 35.8333 29.915 35.8333H10.085C8.49062 35.8333 6.88744 34.9085 6.40766 33.2286L6.40766 33.2286C6.03369 31.9191 5.83337 30.5343 5.83337 29.1026C5.83337 24.0212 8.88537 19.6054 12.7379 17.0153C13.6162 16.4246 14.1667 15.5247 14.1667 14.5884V7.49996C14.1667 7.03972 14.5398 6.66663 15 6.66663Z" fill="white"/>
<path fillRule="evenodd" clipRule="evenodd" d="M22.5196 10.7357C23.0327 11.1976 23.0742 11.9879 22.6124 12.5011L22.5957 12.5196C22.1339 13.0327 21.3435 13.0742 20.8304 12.6124C20.3173 12.1506 20.2757 11.3602 20.7376 10.8471L20.7542 10.8286C21.2161 10.3154 22.0064 10.2739 22.5196 10.7357Z" fill="white"/>
<path fillRule="evenodd" clipRule="evenodd" d="M19.1863 2.40237C19.6994 2.86422 19.741 3.65459 19.2791 4.1677L19.2624 4.18621C18.8006 4.69932 18.0102 4.74087 17.4971 4.27901C16.984 3.81716 16.9425 3.02679 17.4043 2.51368L17.421 2.49517C17.8828 1.98206 18.6732 1.94051 19.1863 2.40237Z" fill="white"/>
<path fillRule="evenodd" clipRule="evenodd" d="M34.7843 5.22705C35.0719 5.52978 35.0719 6.02061 34.7843 6.32334L4.59055 38.1063C4.30295 38.409 3.83667 38.409 3.54907 38.1063C3.26148 37.8036 3.26148 37.3127 3.54907 37.01L33.7429 5.22705C34.0305 4.92432 34.4967 4.92432 34.7843 5.22705Z" fill="white"/>
</svg>
