<svg width="41" height="41" viewBox="0 0 41 41" fill="none" xmlns="http://www.w3.org/2000/svg">
<path d="M2.33325 8.28369L22.9688 4.22353L27.029 24.8591L6.39341 28.9192L2.33325 8.28369Z" fill="#E5D1AB"/>
<path fillRule="evenodd" clipRule="evenodd" d="M20.5236 13.3972C20.9796 13.4596 21.2986 13.8799 21.2362 14.3359L18.3822 35.1725C18.3197 35.6285 17.8994 35.9475 17.4435 35.8851C16.9875 35.8226 16.6685 35.4023 16.7309 34.9463L19.5849 14.1097C19.6474 13.6537 20.0676 13.3347 20.5236 13.3972Z" fill="#D6AD61"/>
<path fillRule="evenodd" clipRule="evenodd" d="M14.4831 31.985C14.5456 31.5291 14.9658 31.2101 15.4218 31.2725L36.2584 34.1265C36.7144 34.189 37.0334 34.6092 36.971 35.0652C36.9085 35.5212 36.4883 35.8402 36.0323 35.7777L15.1956 32.9238C14.7397 32.8613 14.4207 32.441 14.4831 31.985Z" fill="#D6AD61"/>
<path fillRule="evenodd" clipRule="evenodd" d="M36.1511 15.5375C36.607 15.6 36.9261 16.0203 36.8636 16.4763L34.0096 37.3129C33.9472 37.7689 33.5269 38.0879 33.0709 38.0254C32.6149 37.963 32.2959 37.5427 32.3584 37.0867L35.2124 16.2501C35.2748 15.7941 35.6951 15.4751 36.1511 15.5375Z" fill="#D6AD61"/>
<path fillRule="evenodd" clipRule="evenodd" d="M16.6236 16.3574C16.6861 15.9014 17.1063 15.5824 17.5623 15.6448L38.399 18.4988C38.8549 18.5613 39.1739 18.9815 39.1115 19.4375C39.049 19.8935 38.6288 20.2125 38.1728 20.1501L17.3361 17.2961C16.8802 17.2336 16.5612 16.8133 16.6236 16.3574Z" fill="#D6AD61"/>
<path fillRule="evenodd" clipRule="evenodd" d="M28.3375 14.4675C28.7934 14.5299 29.1125 14.9502 29.05 15.4062L26.196 36.2428C26.1336 36.6988 25.7133 37.0178 25.2573 36.9554C24.8013 36.8929 24.4823 36.4726 24.5448 36.0167L27.3988 15.18C27.4612 14.724 27.8815 14.405 28.3375 14.4675Z" fill="#D6AD61"/>
<path fillRule="evenodd" clipRule="evenodd" d="M15.5535 24.1713C15.616 23.7153 16.0363 23.3963 16.4923 23.4588L37.3289 26.3128C37.7849 26.3752 38.1039 26.7955 38.0414 27.2515C37.979 27.7075 37.5587 28.0265 37.1027 27.964L16.2661 25.11C15.8101 25.0476 15.4911 24.6273 15.5535 24.1713Z" fill="#D6AD61"/>
</svg>
