<svg width="72" height="73" viewBox="0 0 72 73" fill="none" xmlns="http://www.w3.org/2000/svg">
<rect y="0.890137" width="72" height="72" rx="36" fill="white"/>
<path fillRule="evenodd" clipRule="evenodd" d="M24.8398 17.9823C29.054 15.5477 33.9518 14.5662 38.7787 15.1891C43.6056 15.8119 48.0938 18.0045 51.552 21.4291C55.0102 24.8537 57.2465 29.3203 57.9165 34.1409C57.9691 34.5196 57.7048 34.8693 57.326 34.9219C56.9473 34.9745 56.5977 34.7102 56.545 34.3315C55.9169 29.8117 53.8202 25.6238 50.5778 22.4129C47.3354 19.202 43.1272 17.1463 38.6015 16.5623C34.0758 15.9783 29.4837 16.8986 25.5324 19.1812C21.8848 21.2885 18.9702 24.449 17.1632 28.2362H25.3846C25.7669 28.2362 26.0769 28.5461 26.0769 28.9285C26.0769 29.3108 25.7669 29.6208 25.3846 29.6208H16.1116C16.1011 29.621 16.0906 29.621 16.0801 29.6208H14.7692C14.3869 29.6208 14.0769 29.3108 14.0769 28.9285V18.3131C14.0769 17.9307 14.3869 17.6208 14.7692 17.6208C15.1516 17.6208 15.4615 17.9307 15.4615 18.3131V28.2362H15.6398C17.5392 23.9324 20.7595 20.3396 24.8398 17.9823Z" fill="#D6AD61"/>
<path fillRule="evenodd" clipRule="evenodd" d="M14.6739 38.8582C15.0526 38.8056 15.4023 39.0699 15.4549 39.4487C16.083 43.9684 18.1798 48.1563 21.4222 51.3672C24.6646 54.5781 28.8727 56.6339 33.3984 57.2178C37.9241 57.8018 42.5163 56.8816 46.4675 54.5989C50.1151 52.4916 53.0297 49.3312 54.8367 45.544H46.6153C46.233 45.544 45.923 45.234 45.923 44.8516C45.923 44.4693 46.233 44.1593 46.6153 44.1593H55.8883C55.8988 44.1591 55.9093 44.1591 55.9198 44.1593H57.2307C57.6131 44.1593 57.923 44.4693 57.923 44.8516V55.467C57.923 55.8494 57.6131 56.1593 57.2307 56.1593C56.8484 56.1593 56.5384 55.8494 56.5384 55.467V45.544H56.3601C54.4607 49.8477 51.2404 53.4406 47.1601 55.7978C42.9459 58.2324 38.0481 59.2139 33.2212 58.5911C28.3943 57.9682 23.9061 55.7757 20.4479 52.3511C16.9897 48.9265 14.7534 44.4598 14.0835 39.6393C14.0308 39.2605 14.2952 38.9109 14.6739 38.8582Z" fill="#D6AD61"/>
<path fillRule="evenodd" clipRule="evenodd" d="M33.1466 22.9599C33.5361 22.5704 34.0644 22.3516 34.6153 22.3516H37.3845C37.9353 22.3516 38.4636 22.5704 38.8531 22.9599C39.2426 23.3494 39.4614 23.8777 39.4614 24.4285V27.1977C39.4614 27.5801 39.1515 27.89 38.7691 27.89H33.2306C32.8483 27.89 32.5383 27.5801 32.5383 27.1977V24.4285C32.5383 23.8777 32.7571 23.3494 33.1466 22.9599ZM34.6153 23.7362C34.4316 23.7362 34.2556 23.8091 34.1257 23.9389C33.9959 24.0688 33.9229 24.2449 33.9229 24.4285V26.5054H38.0768V24.4285C38.0768 24.2449 38.0039 24.0688 37.874 23.9389C37.7442 23.8091 37.5681 23.7362 37.3845 23.7362H34.6153Z" fill="#D6AD61"/>
<path fillRule="evenodd" clipRule="evenodd" d="M33.2307 24.4285C33.613 24.4285 33.923 24.7384 33.923 25.1208C33.923 27.5165 33.1764 29.8526 31.787 31.8043L31.7177 31.9012C30.4498 33.6823 29.7691 35.8127 29.7691 37.9977V46.5823C29.7691 47.1331 29.988 47.6614 30.3775 48.0509C30.767 48.4404 31.2952 48.6592 31.8461 48.6592H40.1538C40.7046 48.6592 41.2329 48.4404 41.6224 48.0509C42.0119 47.6614 42.2307 47.1331 42.2307 46.5823V37.9991C42.2308 35.8133 41.5497 33.6818 40.2821 31.9012L40.2135 31.8052C38.8244 29.8534 38.0768 27.5161 38.0768 25.1208C38.0768 24.7384 38.3868 24.4285 38.7691 24.4285C39.1515 24.4285 39.4614 24.7384 39.4614 25.1208C39.4614 27.2282 40.1185 29.2838 41.3408 31.0013C41.3408 31.0012 41.3408 31.0013 41.3408 31.0013L41.4094 31.0973C42.844 33.1124 43.6154 35.5255 43.6153 37.9991C43.6153 37.9991 43.6153 37.9991 43.6153 37.9991V46.5823C43.6153 47.5004 43.2506 48.3808 42.6014 49.03C41.9523 49.6792 41.0718 50.0438 40.1538 50.0438H31.8461C30.928 50.0438 30.0475 49.6792 29.3984 49.03C28.7492 48.3808 28.3845 47.5004 28.3845 46.5823V37.9977C28.3845 35.5249 29.1549 33.1137 30.5898 31.0982L30.659 31.0013C31.8815 29.2841 32.5384 27.2286 32.5384 25.1208C32.5384 24.7384 32.8483 24.4285 33.2307 24.4285Z" fill="#D6AD61"/>
<path fillRule="evenodd" clipRule="evenodd" d="M33.2162 38.9667C32.7893 38.9578 32.3666 39.0529 31.9846 39.2439C31.6027 39.4349 31.2729 39.716 31.0239 40.0629L31.0234 40.0636C30.5979 40.6549 30.0196 41.1193 29.3504 41.407C28.9991 41.5581 28.5919 41.3958 28.4409 41.0445C28.2898 40.6933 28.4522 40.2861 28.8034 40.135C29.2417 39.9466 29.6206 39.6424 29.8993 39.2552C30.2794 38.7258 30.7825 38.2969 31.3654 38.0055C31.9441 37.7161 32.584 37.5709 33.2307 37.5821C33.8775 37.5709 34.5174 37.7161 35.0961 38.0055C35.679 38.297 36.1823 38.726 36.5624 39.2555C36.8114 39.6024 37.1411 39.8835 37.5231 40.0745C37.905 40.2655 38.3277 40.3606 38.7547 40.3517C38.7644 40.3515 38.774 40.3515 38.7837 40.3517C39.2106 40.3606 39.6333 40.2655 40.0153 40.0745C40.3973 39.8835 40.727 39.6024 40.976 39.2555C41.401 38.663 41.9794 38.1975 42.649 37.9088C43.0001 37.7575 43.4074 37.9194 43.5588 38.2705C43.7101 38.6216 43.5482 39.029 43.1971 39.1803C42.7584 39.3695 42.3794 39.6745 42.101 40.0627L42.1008 40.0629C41.7208 40.5924 41.2175 41.0214 40.6345 41.3129C40.0559 41.6023 39.4159 41.7475 38.7692 41.7362C38.1225 41.7475 37.4825 41.6023 36.9039 41.3129C36.3209 41.0214 35.8176 40.5924 35.4375 40.0629C35.1885 39.716 34.8588 39.4349 34.4768 39.2439C34.0949 39.0529 33.6722 38.9578 33.2452 38.9667C33.2356 38.9669 33.2259 38.9669 33.2162 38.9667Z" fill="#D6AD61"/>
</svg>
