<svg width="72" height="72" viewBox="0 0 72 72" fill="none" xmlns="http://www.w3.org/2000/svg">
  <circle cx="36" cy="36" r="36" fill="white"/>
  <g transform="translate(13.5, 14)">
    <path fillRule="evenodd" clipRule="evenodd" d="M5.21392 8.69506C5.47439 8.26094 6.03746 8.12017 6.47158 8.38064C7.87448 9.22238 9.00265 11.0027 9.97989 13.0721C10.9795 15.1888 11.9108 17.8131 12.8279 20.5643C13.1368 21.491 13.4441 22.4314 13.752 23.3739C15.2939 28.0931 16.8528 32.8643 18.7179 36.2215C18.9036 36.5557 19.0624 36.8093 19.1961 36.9967C19.2024 36.9781 19.2088 36.9588 19.2153 36.9388C19.4183 36.3127 19.6037 35.3626 19.8287 34.1221C19.8605 33.9468 19.893 33.7665 19.9262 33.5818C20.1234 32.4866 20.3489 31.2339 20.6355 29.9121C21.9542 23.8303 24.6883 15.646 32.8562 13.5464C33.3465 13.4204 33.8462 13.7157 33.9722 14.206C34.0982 14.6963 33.8029 15.196 33.3126 15.322C26.3128 17.1213 23.7547 24.1783 22.4272 30.3005C22.1481 31.588 21.9288 32.8058 21.7314 33.9017C21.6979 34.0879 21.665 34.2705 21.6326 34.4493C21.4138 35.6555 21.2079 36.7375 20.9592 37.5045C20.8373 37.88 20.6777 38.2714 20.4431 38.5741C20.1905 38.9001 19.7402 39.2451 19.1169 39.145C18.612 39.064 18.2368 38.7144 17.9812 38.4178C17.7 38.0914 17.4142 37.6499 17.1153 37.1118C15.1557 33.5845 13.5282 28.5986 11.9896 23.8851C11.6864 22.9564 11.3868 22.0383 11.0887 21.144C10.1724 18.3953 9.27046 15.8633 8.3221 13.855C7.35142 11.7994 6.4171 10.486 5.52833 9.95271C5.09422 9.69224 4.95345 9.12917 5.21392 8.69506Z" fill="#D6AD61"/>
    <path fillRule="evenodd" clipRule="evenodd" d="M27.7803 7.79018C29.9535 6.16463 33.0583 5.51513 37.2394 6.10134L40.8402 6.60617C41.3416 6.67646 41.691 7.13987 41.6207 7.64123L41.333 9.69343C41.3309 9.7086 41.3284 9.72372 41.3255 9.73876C40.4547 14.2808 38.8878 17.4371 36.6816 19.3462C34.4457 21.2808 31.6859 21.8218 28.704 21.4037L26.0003 21.0246C25.7384 20.9879 25.5051 20.8399 25.3604 20.6185C23.6656 18.0267 23.9933 15.6893 24.1444 14.6117L24.145 14.6075L24.1453 14.6053C24.5324 11.8927 25.607 9.41586 27.7803 7.79018ZM25.9604 14.8632C25.8314 15.7835 25.6073 17.4024 26.682 19.2689L28.9586 19.5881C31.5546 19.9521 33.7408 19.4664 35.482 17.9598C37.2497 16.4302 38.6889 13.7374 39.5206 9.41598L39.6779 8.29447L36.9849 7.91691C33.0926 7.3712 30.5336 8.02017 28.8784 9.25825C27.2237 10.496 26.3053 12.4475 25.9604 14.8632Z" fill="#D6AD61"/>
  </g>
</svg>