<svg width="40" height="41" viewBox="0 0 40 41" fill="none" xmlns="http://www.w3.org/2000/svg">
<g clipPath="url(#clip0_71_5852)">
<path fillRule="evenodd" clipRule="evenodd" d="M11.6667 6.72355C11.0036 6.72355 10.3677 6.98694 9.8989 7.45578C9.43006 7.92463 9.16667 8.56051 9.16667 9.22355V32.5569C9.16667 33.2199 9.43006 33.8558 9.8989 34.3246C10.3677 34.7935 11.0036 35.0569 11.6667 35.0569H28.3333C28.9964 35.0569 29.6323 34.7935 30.1011 34.3246C30.5699 33.8558 30.8333 33.2199 30.8333 32.5569V9.22355C30.8333 8.56051 30.5699 7.92463 30.1011 7.45578C29.6323 6.98694 28.9964 6.72355 28.3333 6.72355H11.6667ZM8.72039 6.27727C9.50179 5.49587 10.5616 5.05688 11.6667 5.05688H28.3333C29.4384 5.05688 30.4982 5.49587 31.2796 6.27727C32.061 7.05867 32.5 8.11848 32.5 9.22355V32.5569C32.5 33.662 32.061 34.7218 31.2796 35.5032C30.4982 36.2846 29.4384 36.7236 28.3333 36.7236H11.6667C10.5616 36.7236 9.50179 36.2846 8.72039 35.5032C7.93899 34.7218 7.5 33.662 7.5 32.5569V9.22355C7.5 8.11848 7.93899 7.05867 8.72039 6.27727Z" fill="#D6AD61"/>
<path d="M13.3334 24.2236C13.3334 25.9917 14.0358 27.6874 15.286 28.9376C16.5362 30.1878 18.2319 30.8902 20 30.8902C21.7682 30.8902 23.4638 30.1878 24.7141 28.9376C25.9643 27.6874 26.6667 25.9917 26.6667 24.2236C26.6667 22.4554 25.9643 20.7597 24.7141 19.5095C23.4638 18.2593 21.7682 17.5569 20 17.5569C18.2319 17.5569 16.5362 18.2593 15.286 19.5095C14.0358 20.7597 13.3334 22.4554 13.3334 24.2236Z" fill="#D6AD61" fillOpacity="0.4"/>
<path fillRule="evenodd" clipRule="evenodd" d="M14.6967 18.9201C16.1032 17.5136 18.0109 16.7234 20 16.7234C21.9891 16.7234 23.8968 17.5136 25.3033 18.9201C26.7098 20.3266 27.5 22.2343 27.5 24.2234C27.5 26.2125 26.7098 28.1202 25.3033 29.5267C23.8968 30.9332 21.9891 31.7234 20 31.7234C18.0109 31.7234 16.1032 30.9332 14.6967 29.5267C13.2902 28.1202 12.5 26.2125 12.5 24.2234C12.5 22.2343 13.2902 20.3266 14.6967 18.9201ZM20 18.3901C18.4529 18.3901 16.9692 19.0046 15.8752 20.0986C14.7812 21.1926 14.1667 22.6763 14.1667 24.2234C14.1667 25.7705 14.7812 27.2542 15.8752 28.3482C16.9692 29.4421 18.4529 30.0567 20 30.0567C21.5471 30.0567 23.0308 29.4421 24.1248 28.3482C25.2188 27.2542 25.8333 25.7705 25.8333 24.2234C25.8333 22.6763 25.2188 21.1926 24.1248 20.0986C23.0308 19.0046 21.5471 18.3901 20 18.3901Z" fill="#D6AD61"/>
<path fillRule="evenodd" clipRule="evenodd" d="M12.5 10.8902C12.5 10.43 12.8731 10.0569 13.3333 10.0569H13.35C13.8102 10.0569 14.1833 10.43 14.1833 10.8902C14.1833 11.3505 13.8102 11.7236 13.35 11.7236H13.3333C12.8731 11.7236 12.5 11.3505 12.5 10.8902Z" fill="#D6AD61"/>
<path fillRule="evenodd" clipRule="evenodd" d="M17.5 10.8902C17.5 10.43 17.8731 10.0569 18.3333 10.0569H18.35C18.8102 10.0569 19.1833 10.43 19.1833 10.8902C19.1833 11.3505 18.8102 11.7236 18.35 11.7236H18.3333C17.8731 11.7236 17.5 11.3505 17.5 10.8902Z" fill="#D6AD61"/>
<path fillRule="evenodd" clipRule="evenodd" d="M22.5 10.8902C22.5 10.43 22.8731 10.0569 23.3333 10.0569H26.6667C27.1269 10.0569 27.5 10.43 27.5 10.8902C27.5 11.3505 27.1269 11.7236 26.6667 11.7236H23.3333C22.8731 11.7236 22.5 11.3505 22.5 10.8902Z" fill="#D6AD61"/>
<path fillRule="evenodd" clipRule="evenodd" d="M19.6272 24.9687C17.6402 23.9745 15.6932 23.9745 13.7063 24.9687C13.2947 25.1747 12.7941 25.008 12.5881 24.5964C12.3822 24.1848 12.5489 23.6842 12.9605 23.4782C15.4169 22.2491 17.9166 22.2491 20.373 23.4782C22.3599 24.4725 24.3069 24.4725 26.2938 23.4782C26.7054 23.2723 27.206 23.439 27.412 23.8506C27.6179 24.2622 27.4512 24.7628 27.0396 24.9687C24.5832 26.1978 22.0836 26.1978 19.6272 24.9687Z" fill="#D6AD61"/>
</g>
<defs>
<clipPath id="clip0_71_5852">
<rect width="40" height="40" fill="white" transform="translate(0 0.890137)"/>
</clipPath>
</defs>
</svg>
