<svg width="72" height="72" viewBox="0 0 72 72" fill="none" xmlns="http://www.w3.org/2000/svg">
<g clipPath="url(#clip0_71_4949)">
<path fillRule="evenodd" clipRule="evenodd" d="M55.3593 47.3657C55.7096 48.1164 55.385 49.0089 54.6343 49.3593C47.5039 52.6868 44.3072 58.4515 43.4917 66.1578C43.4045 66.9817 42.666 67.5788 41.8422 67.4917C41.0183 67.4045 40.4212 66.666 40.5083 65.8421C41.4071 57.3485 45.0675 50.5132 53.3657 46.6407C54.1164 46.2904 55.0089 46.615 55.3593 47.3657Z" fill="#D6AD61"/>
<path fillRule="evenodd" clipRule="evenodd" d="M16.6248 23.401C16.294 24.1605 16.6415 25.0444 17.401 25.3752C21.9916 27.3747 25.2394 30.0901 27.474 33.375C29.7155 36.6699 30.9939 40.6215 31.5095 45.169C31.6029 45.9922 32.3458 46.5838 33.169 46.4905C33.9921 46.3971 34.5838 45.6542 34.4904 44.831C33.9346 39.9285 32.5344 35.4801 29.9545 31.6876C27.3677 27.885 23.6512 24.8253 18.599 22.6248C17.8395 22.294 16.9556 22.6415 16.6248 23.401Z" fill="#D6AD61"/>
<path d="M48.393 60C60.0416 60 68.0633 53.6589 69 36.8571V33H61.4803C44.6201 33 39.0262 40.7143 39 50.3571C39 52.2857 39 56.1429 42.7467 60H48.3668H48.393Z" fill="#D6AD61" fillOpacity="0.3"/>
<path fillRule="evenodd" clipRule="evenodd" d="M42.9283 36.9437C46.8157 33.4721 52.8486 31.5 61.4803 31.5H69C69.8284 31.5 70.5 32.1716 70.5 33V36.8571C70.5 36.885 70.4992 36.9128 70.4977 36.9406C70.0179 45.5461 67.7109 51.7357 63.7896 55.7741C59.8473 59.8343 54.489 61.5 48.393 61.5H42.7467C42.3413 61.5 41.9532 61.3359 41.6708 61.0451C37.5043 56.7559 37.5 52.394 37.5 50.3571L37.5 50.3531C37.5139 45.2423 39.0121 40.441 42.9283 36.9437ZM40.5 50.3592V50.3642C40.5 52.1053 40.5 55.2401 43.3996 58.5H48.393C53.9456 58.5 58.4225 56.9952 61.6373 53.6843C64.8677 50.3573 67.0381 44.9881 67.5 36.8151V34.5H61.4803C53.2518 34.5 48.0577 36.3851 44.9265 39.1813C41.8246 41.9515 40.5127 45.828 40.5 50.3592Z" fill="#D6AD61"/>
<path fillRule="evenodd" clipRule="evenodd" d="M31.6364 11.1227C27.4005 6.91958 20.7834 4.5 11.2716 4.5H3C2.17157 4.5 1.5 5.17157 1.5 6V10.7143C1.5 10.7394 1.50063 10.7644 1.50188 10.7895C2.02572 21.2298 4.5392 28.6857 8.7857 33.545C13.0743 38.4525 18.9421 40.5 25.6677 40.5H31.8786C32.3114 40.5 32.7231 40.3131 33.0079 39.9873C37.5 34.8489 37.5 29.6634 37.5 27.2213V27.2143L37.5 27.2106C37.485 21.0728 35.8725 15.3261 31.6364 11.1227ZM34.5 27.2162C34.5 29.4009 34.4951 33.3935 31.1802 37.5H25.6677C19.5798 37.5 14.629 35.6724 11.0447 31.5709C7.42275 27.4263 5.01058 20.7507 4.5 10.6765V7.5H11.2716C20.3061 7.5 26.0388 9.7947 29.5233 13.2523C33.0072 16.7092 34.4859 21.569 34.5 27.2162Z" fill="#D6AD61"/>
<path fillRule="evenodd" clipRule="evenodd" d="M68.7063 23.1853C67.9755 23.5754 67.0667 23.2992 66.6766 22.5684C62.9171 15.5259 57.7756 11.2797 52.9459 8.97715C48.0557 6.64568 43.6055 6.35602 41.2445 7.02313C40.4473 7.2484 39.6184 6.78474 39.3932 5.98753C39.1679 5.19031 39.6316 4.36143 40.4288 4.13617C43.6946 3.21336 48.9102 3.72961 54.237 6.26917C59.6243 8.83762 65.251 13.5276 69.3231 21.1556C69.7133 21.8864 69.4371 22.7951 68.7063 23.1853Z" fill="white"/>
</g>
<defs>
<clipPath id="clip0_71_4949">
<rect width="72" height="72" fill="white"/>
</clipPath>
</defs>
</svg>
