<svg width="72" height="73" viewBox="0 0 72 73" fill="none" xmlns="http://www.w3.org/2000/svg">
<rect y="0.890137" width="72" height="72" rx="36" fill="white"/>
<path fillRule="evenodd" clipRule="evenodd" d="M25.6154 41.0439C25.6154 40.6615 25.9253 40.3516 26.3077 40.3516H45.6923C46.0746 40.3516 46.3846 40.6615 46.3846 41.0439C46.3846 41.4262 46.0746 41.7362 45.6923 41.7362H26.3077C25.9253 41.7362 25.6154 41.4262 25.6154 41.0439Z" fill="#D6AD61"/>
<path fillRule="evenodd" clipRule="evenodd" d="M29.7693 25.8132C29.7693 25.4308 30.0792 25.1208 30.4616 25.1208H41.5385C41.9209 25.1208 42.2308 25.4308 42.2308 25.8132C42.2308 26.1955 41.9209 26.5055 41.5385 26.5055H30.4616C30.0792 26.5055 29.7693 26.1955 29.7693 25.8132Z" fill="#D6AD61"/>
<path fillRule="evenodd" clipRule="evenodd" d="M31.8462 25.8132C32.2286 25.8132 32.5385 26.1232 32.5385 26.5055V32.3944C32.5385 33.7301 31.7637 34.8708 30.7395 35.5596L30.7395 35.5596C27.8247 37.5193 25.6155 40.7974 25.6155 44.4524C25.6155 45.5121 25.7637 46.5347 26.0393 47.4999C26.2345 48.1834 26.9251 48.6594 27.7629 48.6594H44.2371C45.0749 48.6594 45.7655 48.1835 45.9609 47.4999C46.2365 46.5347 46.3847 45.5121 46.3847 44.4524C46.3847 40.7974 44.1754 37.5193 41.2607 35.5596L41.2606 35.5596C40.2364 34.8708 39.4616 33.7301 39.4616 32.3944V26.5055C39.4616 26.1232 39.7716 25.8132 40.1539 25.8132C40.5363 25.8132 40.8462 26.1232 40.8462 26.5055V32.3944C40.8462 33.1722 41.3035 33.9199 42.0332 34.4106L41.6469 34.9851L42.0332 34.4106C45.2338 36.5624 47.7693 40.2308 47.7693 44.4524C47.7693 45.6418 47.6029 46.7922 47.2923 47.8801L47.2922 47.8802C46.8936 49.2757 45.5618 50.044 44.2371 50.044H27.7629C26.4384 50.044 25.1065 49.2757 24.7079 47.8801L24.7079 47.8801C24.3973 46.7922 24.2308 45.6418 24.2308 44.4524C24.2308 40.2308 26.7663 36.5624 29.9669 34.4106C30.6966 33.9199 31.1539 33.1722 31.1539 32.3944V26.5055C31.1539 26.1232 31.4639 25.8132 31.8462 25.8132Z" fill="#D6AD61"/>
<path fillRule="evenodd" clipRule="evenodd" d="M38.0932 29.1936C38.5195 29.5773 38.554 30.2339 38.1704 30.6602L38.1565 30.6756C37.7728 31.1019 37.1162 31.1364 36.6899 30.7527C36.2637 30.369 36.2291 29.7124 36.6128 29.2861L36.6267 29.2707C37.0103 28.8445 37.667 28.8099 38.0932 29.1936Z" fill="#D6AD61"/>
<path fillRule="evenodd" clipRule="evenodd" d="M35.324 22.2705C35.7502 22.6542 35.7848 23.3108 35.4011 23.7371L35.3872 23.7525C35.0035 24.1788 34.3469 24.2133 33.9206 23.8296C33.4944 23.4459 33.4598 22.7893 33.8435 22.363L33.8574 22.3476C34.2411 21.9214 34.8977 21.8868 35.324 22.2705Z" fill="#D6AD61"/>
<g clipPath="url(#clip0_71_6685)">
<path d="M56.1903 42.0537L63.1816 40.8113L64.4241 47.8026L57.4328 49.045L56.1903 42.0537Z" fill="#D6AD61"/>
<path d="M16.3995 17.8518L23.1487 20.059L20.9415 26.8081L14.1924 24.6009L16.3995 17.8518Z" fill="#D6AD61"/>
<path d="M24.9231 56.4597L29.0331 56.2749L29.2179 60.3849L25.1079 60.5697L24.9231 56.4597Z" fill="#D6AD61"/>
<path d="M59.2178 30.4783L59.5351 36.6196L54.0579 33.8237L59.2178 30.4783Z" fill="#D6AD61"/>
<path d="M50.701 52.9933L47.9384 58.4874L44.5617 53.348L50.701 52.9933Z" fill="#D6AD61"/>
<path d="M8.88063 31.541L14.3537 34.345L9.1889 37.6828L8.88063 31.541Z" fill="#D6AD61"/>
<path d="M48.6446 14.4899C49.018 15.8832 48.1911 17.3153 46.7978 17.6887C45.4045 18.062 43.9724 17.2352 43.5991 15.8419C43.2257 14.4486 44.0526 13.0164 45.4459 12.6431C46.8392 12.2698 48.2713 13.0966 48.6446 14.4899Z" fill="#D6AD61"/>
<path d="M19.3988 46.5752C19.3988 47.9134 18.3139 48.9983 16.9757 48.9983C15.6375 48.9983 14.5526 47.9134 14.5526 46.5752C14.5526 45.2369 15.6375 44.1521 16.9757 44.1521C18.3139 44.1521 19.3988 45.2369 19.3988 46.5752Z" fill="#D6AD61"/>
</g>
<path fillRule="evenodd" clipRule="evenodd" d="M14.7412 58.149C14.4709 57.8786 14.4709 57.4403 14.7412 57.1699L56.2797 15.6314C56.5501 15.3611 56.9884 15.3611 57.2588 15.6314C57.5291 15.9018 57.5291 16.3401 57.2588 16.6105L15.7203 58.149C15.45 58.4193 15.0116 58.4193 14.7412 58.149Z" fill="#D6AD61"/>
<defs>
<clipPath id="clip0_71_6685">
<rect width="58.1538" height="58.1538" fill="white" transform="translate(6.9231 10.5825)"/>
</clipPath>
</defs>
</svg>
