<svg width="129" height="101" viewBox="0 0 129 101" fill="none" xmlns="http://www.w3.org/2000/svg">
<path d="M59.9398 39.2964V64.2722C59.9398 65.1528 59.2261 65.8664 58.3456 65.8664H19.0219C18.1415 65.8664 17.4277 65.1528 17.4277 64.2722V39.2964" stroke="#D6AD61" stroke-width="1.5" strokeLinecap="round" strokeLinejoin="round"/>
<path d="M63.6597 26.0112H13.708C12.8275 26.0112 12.1138 26.725 12.1138 27.6054V37.7021C12.1138 38.5826 12.8275 39.2963 13.708 39.2963H63.6597C64.5402 39.2963 65.2539 38.5826 65.2539 37.7021V27.6054C65.2539 26.725 64.5402 26.0112 63.6597 26.0112Z" stroke="#D6AD61" stroke-width="1.5" strokeLinecap="round" strokeLinejoin="round"/>
<path d="M38.6838 65.8663V26.0112" stroke="#D6AD61" stroke-width="1.5" strokeLinecap="round" strokeLinejoin="round"/>
<path d="M38.6839 26.0116H26.7274C24.9657 26.0116 23.2761 25.3118 22.0304 24.066C20.7847 22.8203 20.0848 21.1308 20.0848 19.3691C20.0848 17.6074 20.7847 15.9178 22.0304 14.6721C23.2761 13.4264 24.9657 12.7266 26.7274 12.7266C36.0269 12.7266 38.6839 26.0116 38.6839 26.0116Z" stroke="#D6AD61" stroke-width="1.5" strokeLinecap="round" strokeLinejoin="round"/>
<path d="M38.6838 26.0116H50.6404C52.402 26.0116 54.0915 25.3118 55.3374 24.066C56.583 22.8203 57.2829 21.1308 57.2829 19.3691C57.2829 17.6074 56.583 15.9178 55.3374 14.6721C54.0915 13.4264 52.402 12.7266 50.6404 12.7266C41.3408 12.7266 38.6838 26.0116 38.6838 26.0116Z" stroke="#D6AD61" stroke-width="1.5" strokeLinecap="round" strokeLinejoin="round"/>
<path d="M1.72705 16.8321C1.72705 12.0296 5.62024 8.13646 10.4227 8.13646H16.2198M16.2198 8.13646L10.4227 13.9336M16.2198 8.13646L10.4227 2.33936" stroke="#D6AD61" stroke-width="1.5" strokeLinecap="round" strokeLinejoin="round"/>
<path d="M80.7677 61.035C80.7313 60.5567 80.7128 60.0733 80.7128 59.5857C80.7128 49.1803 89.1478 40.7451 99.5533 40.7451C109.959 40.7451 118.394 49.1803 118.394 59.5857C118.394 69.9912 109.959 78.4263 99.5533 78.4263C99.0658 78.4263 98.5823 78.4077 98.1041 78.3715" stroke="#D6AD61" stroke-width="1.5" strokeLinecap="round" strokeLinejoin="round"/>
<path d="M79.2634 98.7163C68.8581 98.7163 60.4229 90.2812 60.4229 79.8757C60.4229 69.4702 68.8581 61.0352 79.2634 61.0352C89.6689 61.0352 98.104 69.4702 98.104 79.8757C98.104 90.2812 89.6689 98.7163 79.2634 98.7163Z" stroke="#D6AD61" stroke-width="1.5" strokeLinecap="round" strokeLinejoin="round"/>
<path d="M84.1547 72.0543C83.0055 71.4944 81.7147 71.1802 80.3503 71.1802C75.5478 71.1802 71.6547 75.0733 71.6547 79.8758C71.6547 84.6783 75.5478 88.5715 80.3503 88.5715C81.7147 88.5715 83.0055 88.2572 84.1547 87.6973" stroke="#D6AD61" stroke-width="1.5" strokeLinecap="round" strokeLinejoin="round"/>
<path d="M69.4808 77.7017H81.4374" stroke="#D6AD61" stroke-width="1.5" strokeLinecap="round" strokeLinejoin="round"/>
<path d="M69.4808 82.0498H81.4374" stroke="#D6AD61" stroke-width="1.5" strokeLinecap="round" strokeLinejoin="round"/>
<path d="M105.894 51.7643C104.745 51.2043 103.454 50.8901 102.089 50.8901C97.287 50.8901 93.3938 54.7833 93.3938 59.5858C93.3938 64.3883 97.287 68.2814 102.089 68.2814C103.454 68.2814 104.745 67.9672 105.894 67.4073" stroke="#D6AD61" stroke-width="1.5" strokeLinecap="round" strokeLinejoin="round"/>
<path d="M91.22 57.4121H103.176" stroke="#D6AD61" stroke-width="1.5" strokeLinecap="round" strokeLinejoin="round"/>
<path d="M91.22 61.7598H103.176" stroke="#D6AD61" stroke-width="1.5" strokeLinecap="round" strokeLinejoin="round"/>
<path d="M125.64 82.7744C125.64 87.577 121.747 91.4701 116.945 91.4701H111.147M111.147 91.4701L116.945 85.673M111.147 91.4701L116.945 97.2672" stroke="#D6AD61" stroke-width="1.5" strokeLinecap="round" strokeLinejoin="round"/>
</svg>
